<svg width="17" height="17" viewBox="0 0 17 17" fill="none" xmlns="http://www.w3.org/2000/svg">
<path d="M6.72917 11.3333C5.44236 11.3333 4.35342 10.8876 3.46233 9.996C2.57125 9.10444 2.12547 8.0155 2.125 6.72917C2.12453 5.44283 2.57031 4.35389 3.46233 3.46233C4.35436 2.57078 5.44331 2.125 6.72917 2.125C8.01503 2.125 9.10421 2.57078 9.99671 3.46233C10.8892 4.35389 11.3348 5.44283 11.3333 6.72917C11.3333 7.24861 11.2507 7.73854 11.0854 8.19896C10.9201 8.65938 10.6958 9.06667 10.4125 9.42083L14.3792 13.3875C14.509 13.5174 14.574 13.6826 14.574 13.8833C14.574 14.084 14.509 14.2493 14.3792 14.3792C14.2493 14.509 14.084 14.574 13.8833 14.574C13.6826 14.574 13.5174 14.509 13.3875 14.3792L9.42083 10.4125C9.06667 10.6958 8.65938 10.9201 8.19896 11.0854C7.73854 11.2507 7.24861 11.3333 6.72917 11.3333ZM6.72917 9.91667C7.61458 9.91667 8.36731 9.60689 8.98733 8.98733C9.60736 8.36778 9.91714 7.61506 9.91667 6.72917C9.91619 5.84328 9.60642 5.09079 8.98733 4.47171C8.36825 3.85263 7.61553 3.54261 6.72917 3.54167C5.84281 3.54072 5.09032 3.85074 4.47171 4.47171C3.8531 5.09268 3.54308 5.84517 3.54167 6.72917C3.54025 7.61317 3.85026 8.36589 4.47171 8.98733C5.09315 9.60878 5.84564 9.91856 6.72917 9.91667Z" fill="#AFAFAF"/>
</svg>
