<svg width="21" height="21" viewBox="0 0 21 21" fill="none" xmlns="http://www.w3.org/2000/svg">
<path d="M2 5.16667H19.4167M8.92708 15.2604V9.32292M12.4896 15.2604V9.32292M12.4896 2H8.92708C8.61214 2 8.31009 2.12511 8.08739 2.34781C7.8647 2.57051 7.73958 2.87256 7.73958 3.1875V5.16667H13.6771V3.1875C13.6771 2.87256 13.552 2.57051 13.3293 2.34781C13.1066 2.12511 12.8045 2 12.4896 2ZM16.1392 18.3242C16.1171 18.6217 15.9832 18.8998 15.7643 19.1025C15.5455 19.3052 15.2579 19.4175 14.9596 19.4167H6.45708C6.15876 19.4175 5.8712 19.3052 5.65233 19.1025C5.43346 18.8998 5.29952 18.6217 5.2775 18.3242L4.17708 5.16667H17.2396L16.1392 18.3242Z" stroke="#D82D2D" stroke-width="1.5" stroke-linecap="round" stroke-linejoin="round"/>
</svg>
