<svg width="25" height="25" viewBox="0 0 25 25" fill="none" xmlns="http://www.w3.org/2000/svg">
<g clip-path="url(#clip0_457_1307)">
<path d="M21.875 10.1561H21.0576C20.8613 8.02222 19.8748 6.03864 18.2917 4.59443C16.7085 3.15023 14.6429 2.34961 12.5 2.34961C10.3571 2.34961 8.29147 3.15023 6.70831 4.59443C5.12515 6.03864 4.13868 8.02222 3.94238 10.1561H3.125C2.9178 10.1561 2.71909 10.2384 2.57257 10.385C2.42606 10.5315 2.34375 10.7302 2.34375 10.9374C2.34718 12.7953 2.85849 14.6169 3.82237 16.2053C4.78626 17.7936 6.16604 19.0882 7.8125 19.9491V20.3124C7.8125 20.7268 7.97712 21.1242 8.27015 21.4172C8.56317 21.7103 8.9606 21.8749 9.375 21.8749H15.625C16.0394 21.8749 16.4368 21.7103 16.7299 21.4172C17.0229 21.1242 17.1875 20.7268 17.1875 20.3124V19.9491C18.834 19.0882 20.2137 17.7936 21.1776 16.2053C22.1415 14.6169 22.6528 12.7953 22.6562 10.9374C22.6562 10.7302 22.5739 10.5315 22.4274 10.385C22.2809 10.2384 22.0822 10.1561 21.875 10.1561ZM19.4863 10.1561H14.4648C15.412 8.73512 16.845 7.70839 18.4951 7.26844C19.0346 8.14603 19.3731 9.1322 19.4863 10.1561ZM16.9414 5.49109C17.1204 5.63758 17.292 5.7922 17.4561 5.95496C15.3763 6.68655 13.6577 8.19012 12.6563 10.1542H9.77539C10.2637 8.78546 11.1626 7.60086 12.3494 6.76223C13.5363 5.9236 14.953 5.47182 16.4062 5.46863C16.585 5.46863 16.7637 5.47742 16.9414 5.49109ZM12.5 3.90613C13.1269 3.9067 13.7509 3.99111 14.3555 4.15711C12.8832 4.52232 11.5333 5.26916 10.4417 6.32236C9.35007 7.37557 8.55538 8.69792 8.1377 10.1561H5.51367C5.70747 8.43822 6.52668 6.85171 7.81514 5.69904C9.10361 4.54638 10.7712 3.90819 12.5 3.90613ZM16.0801 18.7499C15.9438 18.8125 15.8284 18.913 15.7477 19.0394C15.667 19.1658 15.6244 19.3128 15.625 19.4628V20.3124H9.375V19.4628C9.37557 19.3128 9.33297 19.1658 9.25227 19.0394C9.17158 18.913 9.0562 18.8125 8.91992 18.7499C7.54601 18.1177 6.36257 17.1352 5.48839 15.901C4.6142 14.6669 4.08001 13.2245 3.93945 11.7186H21.0576C20.9173 13.2242 20.3836 14.6663 19.5099 15.9005C18.6363 17.1346 17.4534 18.1173 16.0801 18.7499Z" fill="white"/>
</g>
<defs>
<clipPath id="clip0_457_1307">
<rect width="25" height="25" fill="white"/>
</clipPath>
</defs>
</svg>
