<svg width="25" height="25" viewBox="0 0 25 25" fill="none" xmlns="http://www.w3.org/2000/svg">
<g clip-path="url(#clip0_457_2123)">
<path d="M22.1923 9.99633H21.3473C21.1443 7.81053 20.1245 5.77872 18.4877 4.2994C16.851 2.82008 14.7155 2 12.5 2C10.2845 2 8.14903 2.82008 6.51229 4.2994C4.87554 5.77872 3.85569 7.81053 3.65274 9.99633H2.80769C2.59348 9.99633 2.38804 10.0806 2.23657 10.2307C2.0851 10.3808 2 10.5843 2 10.7966C2.00355 12.6997 2.53216 14.5656 3.52867 16.1926C4.52518 17.8195 5.95166 19.1456 7.65385 20.0274V20.3995C7.65385 20.824 7.82404 21.2311 8.12698 21.5312C8.42992 21.8314 8.8408 22 9.26923 22H15.7308C16.1592 22 16.5701 21.8314 16.873 21.5312C17.176 21.2311 17.3462 20.824 17.3462 20.3995V20.0274C19.0483 19.1456 20.4748 17.8195 21.4713 16.1926C22.4678 14.5656 22.9965 12.6997 23 10.7966C23 10.5843 22.9149 10.3808 22.7634 10.2307C22.612 10.0806 22.4065 9.99633 22.1923 9.99633ZM17.0917 5.21786C17.2768 5.36791 17.4542 5.52629 17.6238 5.69301C15.4737 6.44239 13.6969 7.98251 12.6615 9.99433H9.68317C10.188 8.59233 11.1174 7.37893 12.3443 6.51991C13.5713 5.66088 15.0361 5.19813 16.5385 5.19486C16.7232 5.19486 16.908 5.20386 17.0917 5.21786ZM14.5313 9.99633C15.5106 8.54077 16.9921 7.48907 18.698 7.03842C19.2558 7.93735 19.6058 8.9475 19.7228 9.99633H14.5313ZM12.5 3.59437C13.1481 3.59495 13.7933 3.68141 14.4183 3.85145C12.8962 4.22553 11.5006 4.99053 10.372 6.06934C9.24345 7.14816 8.42186 8.50266 7.99005 9.99633H5.27721C5.47756 8.23665 6.32451 6.61156 7.65658 5.43087C8.98865 4.25018 10.7127 3.59647 12.5 3.59437Z" fill="white"/>
</g>
<defs>
<clipPath id="clip0_457_2123">
<rect width="25" height="25" fill="white"/>
</clipPath>
</defs>
</svg>
